<svg xmlns="http://www.w3.org/2000/svg" width="56" height="56" fill="none"><g fill="#FF7500" fill-rule="evenodd" clip-path="url(#a)" clip-rule="evenodd" filter="url(#b)"><path d="M14 5.6a2.8 2.8 0 0 1 2.8 2.8v2.8h2.8a2.8 2.8 0 1 1 0 5.6h-2.8v2.8a2.8 2.8 0 1 1-5.6 0v-2.8H8.4a2.8 2.8 0 1 1 0-5.6h2.8V8.4A2.8 2.8 0 0 1 14 5.6Zm0 28a2.8 2.8 0 0 1 2.8 2.8v2.8h2.8a2.8 2.8 0 1 1 0 5.6h-2.8v2.8a2.8 2.8 0 1 1-5.6 0v-2.8H8.4a2.8 2.8 0 1 1 0-5.6h2.8v-2.8a2.8 2.8 0 0 1 2.8-2.8ZM33.6 5.6a2.8 2.8 0 0 1 2.707 2.083l3.301 12.474L49 25.575a2.8 2.8 0 0 1 0 4.85l-9.39 5.418-3.302 12.473a2.8 2.8 0 0 1-5.414 0l-3.302-12.473-9.39-5.418a2.8 2.8 0 0 1 0-4.85l9.39-5.418 3.302-12.474A2.8 2.8 0 0 1 33.6 5.6Z"/></g><defs><clipPath id="a"><path fill="#fff" d="M0 0h56v56H0z"/></clipPath><filter id="b" width="52.8" height="52.8" x="1.6" y="5.6" color-interpolation-filters="sRGB" filterUnits="userSpaceOnUse"><feFlood flood-opacity="0" result="BackgroundImageFix"/><feColorMatrix in="SourceAlpha" result="hardAlpha" values="0 0 0 0 0 0 0 0 0 0 0 0 0 0 0 0 0 0 127 0"/><feOffset dy="4"/><feGaussianBlur stdDeviation="2"/><feComposite in2="hardAlpha" operator="out"/><feColorMatrix values="0 0 0 0 0 0 0 0 0 0 0 0 0 0 0 0 0 0 0.25 0"/><feBlend in2="BackgroundImageFix" result="effect1_dropShadow_3_104"/><feBlend in="SourceGraphic" in2="effect1_dropShadow_3_104" result="shape"/></filter></defs></svg>